<?xml version="1.0" encoding="utf-8"?>
<!-- Generator: Adobe Illustrator 27.8.1, SVG Export Plug-In . SVG Version: 6.00 Build 0)  -->
<svg version="1.1" xmlns="http://www.w3.org/2000/svg" xmlns:xlink="http://www.w3.org/1999/xlink" x="0px" y="0px"
	 viewBox="0 0 960 720" style="enable-background:new 0 0 960 720;background-color:white;" xml:space="preserve">
<style type="text/css">
	.st0{fill:#F2F2F2;}
	.st1{fill:#FFFFFF;}
	.st2{fill:#666666;}
	.st3{font-family:sans-serif;}
	.st4{font-size:14px;}
	.st5{font-family:sans-serif;}
	.st6{font-size:21px;}
	.st7{fill:#29ABE2;}
	.st8{fill:none;stroke:#93278F;stroke-miterlimit:10;}
	.st9{fill:#93278F;}
	.st10{fill:none;stroke:#39B54A;stroke-miterlimit:10;}
	.st11{fill:#39B54A;}
	.st12{fill:none;stroke:#F7931E;stroke-miterlimit:10;}
	.st13{fill:#F7931E;}
	.st14{fill:none;stroke:#29ABE2;stroke-miterlimit:10;}
	.st15{font-size:12.5473px;}
	.st16{fill:none;stroke:#666666;stroke-miterlimit:10;stroke-dasharray:6;}
	.st17{fill:none;stroke:#F2F2F2;stroke-miterlimit:10;}
</style>
<g id="Layer_3">
	<rect x="9.99" y="8.67" class="st0" width="940" height="700"/>
</g>
<g id="Layer_2">
	
		<rect x="124.31" y="168.26" transform="matrix(0.7071 0.7071 -0.7071 0.7071 223.0512 -66.6512)" class="st1" width="135.33" height="135.33"/>
	
		<rect x="316.2" y="168.26" transform="matrix(0.7071 0.7071 -0.7071 0.7071 279.254 -202.3367)" class="st1" width="135.33" height="135.33"/>
	
		<rect x="508.09" y="168.26" transform="matrix(0.7071 0.7071 -0.7071 0.7071 335.4567 -338.0222)" class="st1" width="135.33" height="135.33"/>
	
		<rect x="699.98" y="168.26" transform="matrix(0.7071 0.7071 -0.7071 0.7071 391.6595 -473.7077)" class="st1" width="135.33" height="135.33"/>
	<text transform="matrix(1 0 0 1 37.3434 48.3342)" class="st2 st3 st4">4d (discover - define - develop - deliver) Process Model</text>
	<g>
		<text transform="matrix(1 0 0 1 820.9347 664.3342)" class="st2 st5 st6">Outcome</text>
	</g>
	<text transform="matrix(1 0 0 1 173.5216 384.8971)" class="st7 st5 st4">Probe</text>
	<g>
		<g>
			<line class="st8" x1="680.52" y1="609.57" x2="854.12" y2="610.06"/>
			<g>
				<path class="st9" d="M687.34,614.39c0.15-0.23,0.08-0.54-0.15-0.69l-6.44-4.13l6.46-4.09c0.23-0.15,0.3-0.46,0.16-0.69
					s-0.46-0.3-0.69-0.16l-7.13,4.51c-0.14,0.09-0.23,0.25-0.23,0.42s0.09,0.33,0.23,0.42l7.1,4.55c0.08,0.05,0.18,0.08,0.27,0.08
					C687.08,614.62,687.25,614.54,687.34,614.39z"/>
			</g>
			<g>
				<path class="st9" d="M847.27,614.85c-0.15-0.23-0.08-0.54,0.16-0.69l6.46-4.09l-6.44-4.13c-0.23-0.15-0.3-0.46-0.15-0.69
					s0.46-0.3,0.69-0.15l7.1,4.55c0.14,0.09,0.23,0.25,0.23,0.42s-0.09,0.33-0.23,0.42l-7.13,4.51c-0.08,0.05-0.18,0.08-0.27,0.08
					C847.52,615.08,847.36,614.99,847.27,614.85z"/>
			</g>
		</g>
	</g>
	<g>
		<g>
			<line class="st10" x1="488.73" y1="538.85" x2="662.32" y2="539.34"/>
			<g>
				<path class="st11" d="M495.55,543.67c0.15-0.23,0.08-0.54-0.15-0.69l-6.44-4.13l6.46-4.09c0.23-0.15,0.3-0.46,0.16-0.69
					c-0.15-0.23-0.46-0.3-0.69-0.16l-7.13,4.51c-0.14,0.09-0.23,0.25-0.23,0.42s0.09,0.33,0.23,0.42l7.1,4.55
					c0.08,0.05,0.18,0.08,0.27,0.08C495.29,543.9,495.45,543.82,495.55,543.67z"/>
			</g>
			<g>
				<path class="st11" d="M655.47,544.12c-0.15-0.23-0.08-0.54,0.16-0.69l6.46-4.09l-6.44-4.13c-0.23-0.15-0.3-0.46-0.15-0.69
					c0.15-0.23,0.46-0.3,0.69-0.15l7.1,4.55c0.14,0.09,0.23,0.25,0.23,0.42s-0.09,0.33-0.23,0.42l-7.13,4.51
					c-0.08,0.05-0.18,0.08-0.27,0.08C655.73,544.36,655.57,544.27,655.47,544.12z"/>
			</g>
		</g>
	</g>
	<g>
		<g>
			<line class="st12" x1="297.2" y1="468.13" x2="470.8" y2="468.62"/>
			<g>
				<path class="st13" d="M304.02,472.95c0.15-0.23,0.08-0.54-0.15-0.69l-6.44-4.13l6.46-4.09c0.23-0.15,0.3-0.46,0.16-0.69
					c-0.15-0.23-0.46-0.3-0.69-0.16l-7.13,4.51c-0.14,0.09-0.23,0.25-0.23,0.42s0.09,0.33,0.23,0.42l7.1,4.55
					c0.08,0.05,0.18,0.08,0.27,0.08C303.76,473.18,303.93,473.1,304.02,472.95z"/>
			</g>
			<g>
				<path class="st13" d="M463.95,473.4c-0.15-0.23-0.08-0.54,0.16-0.69l6.46-4.09l-6.44-4.13c-0.23-0.15-0.3-0.46-0.15-0.69
					c0.15-0.23,0.46-0.3,0.69-0.15l7.1,4.55c0.14,0.09,0.23,0.25,0.23,0.42s-0.09,0.33-0.23,0.42l-7.13,4.51
					c-0.08,0.05-0.18,0.08-0.27,0.08C464.21,473.63,464.05,473.55,463.95,473.4z"/>
			</g>
		</g>
	</g>
	<g>
		<g>
			<line class="st14" x1="105.14" y1="397.41" x2="278.73" y2="397.9"/>
			<g>
				<path class="st7" d="M111.96,402.23c0.15-0.23,0.08-0.54-0.15-0.69l-6.44-4.13l6.46-4.09c0.23-0.15,0.3-0.46,0.16-0.69
					c-0.15-0.23-0.46-0.3-0.69-0.16l-7.13,4.51c-0.14,0.09-0.23,0.25-0.23,0.42c0,0.17,0.09,0.33,0.23,0.42l7.1,4.55
					c0.08,0.05,0.18,0.08,0.27,0.08C111.7,402.46,111.86,402.38,111.96,402.23z"/>
			</g>
			<g>
				<path class="st7" d="M271.88,402.68c-0.15-0.23-0.08-0.54,0.16-0.69l6.46-4.09l-6.44-4.13c-0.23-0.15-0.3-0.46-0.15-0.69
					c0.15-0.23,0.46-0.3,0.69-0.15l7.1,4.55c0.14,0.09,0.23,0.25,0.23,0.42s-0.09,0.33-0.23,0.42l-7.13,4.51
					c-0.08,0.05-0.18,0.08-0.27,0.08C272.14,402.91,271.98,402.83,271.88,402.68z"/>
			</g>
		</g>
	</g>
	<text transform="matrix(1 0 0 1 64.8587 381.4474)" class="st2 st5 st6">Insight</text>
	<text transform="matrix(1 0 0 1 246.8304 452.1693)" class="st2 st5 st6">Question</text>
	<text transform="matrix(1 0 0 1 458.1741 522.8905)" class="st2 st5 st6">Goal</text>
	<text transform="matrix(1 0 0 1 626.8308 593.6121)" class="st2 st5 st6">Definition</text>
	<g>
		<text transform="matrix(1 0 0 1 716.4012 632.3102)" class="st9 st5 st4">Logical Thinking</text>
	</g>
	<g>
		<text transform="matrix(1 0 0 1 535.4721 561.5877)" class="st11 st5 st4">Dev Thinking</text>
	</g>
	<g>
		<text transform="matrix(1 0 0 1 334.241 490.8672)" class="st13 st5 st4">Design Thinking</text>
	</g>
	<g>
		<text transform="matrix(1 0 0 1 141.3927 420.146)" class="st7 st5 st4">Artistic Thinking</text>
	</g>
	<text transform="matrix(1 0 0 1 128.2856 240.6069)" class="st2 st5 st15">diverge</text>
	<text transform="matrix(1 0 0 1 208.8013 240.6069)" class="st2 st5 st15">converge</text>
	<line class="st16" x1="96.29" y1="104" x2="95.79" y2="352"/>
	<line class="st16" x1="288.08" y1="101" x2="287.58" y2="422"/>
	<line class="st16" x1="479.88" y1="101" x2="479.38" y2="497"/>
	<line class="st16" x1="671.67" y1="101" x2="671.17" y2="567"/>
	<line class="st16" x1="864.21" y1="101" x2="862.97" y2="637"/>
	<line class="st17" x1="767.79" y1="153" x2="767.5" y2="314"/>
	<line class="st17" x1="575.91" y1="153" x2="575.61" y2="314"/>
	<line class="st17" x1="384.02" y1="153" x2="383.72" y2="314"/>
	<line class="st17" x1="192.13" y1="153" x2="191.83" y2="314"/>
	<text transform="matrix(1 0 0 1 152.5408 118.4474)" class="st2 st5 st6">discover</text>
	<text transform="matrix(1 0 0 1 355.0764 118.4474)" class="st2 st5 st6">define</text>
	<text transform="matrix(1 0 0 1 539.55 118.4474)" class="st2 st5 st6">develop</text>
	<text transform="matrix(1 0 0 1 736.3284 118.4474)" class="st2 st5 st6">deliver</text>
</g>
</svg>
