<?xml version="1.0" encoding="utf-8"?>
<!-- Generator: Adobe Illustrator 27.8.1, SVG Export Plug-In . SVG Version: 6.00 Build 0)  -->
<svg version="1.1" xmlns="http://www.w3.org/2000/svg" xmlns:xlink="http://www.w3.org/1999/xlink" x="0px" y="0px"
	 viewBox="0 0 960 720" style="enable-background:new 0 0 960 720;background-color:white;" xml:space="preserve">
<style type="text/css">
	.st0{fill:#F2F2F2;}
	.st1{fill:none;stroke:#FFFFFF;stroke-width:3;stroke-miterlimit:10;stroke-dasharray:11.8936,11.8936;}
	.st2{fill:none;stroke:#FFFFFF;stroke-width:3;stroke-miterlimit:10;stroke-dasharray:12.2396,12.2396;}
	.st3{fill:#666666;}
	.st4{font-family:sans-serif;}
	.st5{font-size:14px;}
	.st6{font-family:sans-serif;}
	.st7{fill:#29ABE2;}
	.st8{font-size:21px;}
	.st9{font-size:28px;}
	.st10{fill:none;stroke:#29ABE2;stroke-miterlimit:10;}
	.st11{fill:none;stroke:#666666;stroke-miterlimit:10;}
	.st12{fill:none;stroke:#666666;stroke-miterlimit:10;stroke-dasharray:6.1354,6.1354;}
	.st13{fill:none;stroke:#666666;stroke-miterlimit:10;stroke-dasharray:6.4385,6.4385;}
	.st14{fill:none;stroke:#666666;stroke-miterlimit:10;stroke-dasharray:5.9499,5.9499;}
	.st15{fill:none;stroke:#666666;stroke-miterlimit:10;stroke-dasharray:5.6091,5.6091;}
	.st16{fill:none;stroke:#666666;stroke-miterlimit:10;stroke-dasharray:6.3,6.3;}
	.st17{fill:none;stroke:#666666;stroke-miterlimit:10;stroke-dasharray:5.634,5.634;}
	.st18{fill:none;stroke:#666666;stroke-miterlimit:10;stroke-dasharray:6.6207,6.6207;}
	.st19{fill:none;stroke:#666666;stroke-miterlimit:10;stroke-dasharray:6.784,6.784;}
	.st20{fill:none;stroke:#666666;stroke-miterlimit:10;stroke-dasharray:6.4894,6.4894;}
	.st21{fill:none;stroke:#666666;stroke-miterlimit:10;stroke-dasharray:5.7659,5.7659;}
	.st22{fill:none;stroke:#666666;stroke-miterlimit:10;stroke-dasharray:6.5863,6.5863;}
	.st23{fill:none;stroke:#666666;stroke-miterlimit:10;stroke-dasharray:5.675,5.675;}
	.st24{fill:#FFFFFF;stroke:#666666;stroke-miterlimit:10;}
	.st25{fill:#FFFFFF;stroke:#29ABE2;stroke-miterlimit:10;}
</style>
<g id="Layer_3">
	<rect x="9.99" y="8.67" class="st0" width="940" height="700"/>
</g>
<g id="Layer_2">
	<g>
		<circle class="st1" cx="204.17" cy="372" r="132.5"/>
	</g>
	<g>
		<circle class="st2" cx="753" cy="372" r="93.5"/>
	</g>
	<text transform="matrix(1 0 0 1 37.3434 48.3342)" class="st3 st4 st5">Insight Probing</text>
	<text transform="matrix(1 0 0 1 542.6217 53.3342)" class="st3 st6 st5">Create an idea to make a new experience</text>
	<text transform="matrix(1 0 0 1 542.6217 79.3342)" class="st3 st6 st5">Connect ideas to weave concept</text>
	<text transform="matrix(1 0 0 1 542.6217 105.3342)" class="st3 st6 st5">Predict next experience to be found</text>
	<text transform="matrix(1 0 0 1 607.8434 288.8342)" class="st3 st6 st5">idea</text>
	<text transform="matrix(1 0 0 1 632.3434 497.3342)" class="st3 st6 st5">idea</text>
	<text transform="matrix(1 0 0 1 156.3434 270.3342)" class="st7 st6 st5">experience</text>
	<text transform="matrix(1 0 0 1 148.3434 455.3342)" class="st7 st6 st5">experience</text>
	<text transform="matrix(1 0 0 1 172.4584 581.8621)" class="st3 st6 st8">Insight</text>
	<text transform="matrix(1 0 0 1 134.8129 613.8621)" class="st3 st6 st5">Realm found in infinity</text>
	<text transform="matrix(1 0 0 1 714.0046 581.8621)" class="st3 st6 st8">Concept</text>
	<text transform="matrix(1 0 0 1 674.9948 613.8621)" class="st3 st6 st5">Description for an insight</text>
	<text transform="matrix(1 0 0 1 443.175 214.862)" class="st7 st6 st9">Probe</text>
	<g>
		<g>
			<line class="st10" x1="608" y1="300" x2="202.11" y2="284.75"/>
			<g>
				<path class="st7" d="M209.12,280.21c0.14,0.24,0.06,0.54-0.18,0.68l-6.6,3.86l6.29,4.35c0.23,0.16,0.28,0.47,0.13,0.7
					c-0.16,0.23-0.47,0.28-0.7,0.13l-6.94-4.8c-0.14-0.1-0.22-0.26-0.22-0.43s0.1-0.33,0.25-0.41l7.28-4.26
					c0.08-0.05,0.18-0.07,0.27-0.07C208.87,279.97,209.03,280.05,209.12,280.21z"/>
			</g>
		</g>
	</g>
	<g>
		<g>
			<line class="st10" x1="684.5" y1="339.5" x2="294.7" y2="341.49"/>
			<g>
				<path class="st7" d="M301.51,336.66c0.15,0.23,0.08,0.54-0.15,0.69l-6.43,4.14l6.47,4.08c0.23,0.15,0.3,0.46,0.16,0.69
					s-0.46,0.3-0.69,0.16l-7.14-4.49c-0.14-0.09-0.23-0.25-0.23-0.42s0.09-0.33,0.23-0.42l7.09-4.57c0.08-0.05,0.18-0.08,0.27-0.08
					C301.25,336.43,301.42,336.51,301.51,336.66z"/>
			</g>
		</g>
	</g>
	<g>
		<g>
			<line class="st10" x1="782.5" y1="427.5" x2="351.11" y2="445.65"/>
			<g>
				<path class="st7" d="M357.74,440.57c0.16,0.23,0.1,0.54-0.12,0.7l-6.27,4.38l6.62,3.83c0.24,0.14,0.32,0.44,0.18,0.68
					c-0.14,0.24-0.45,0.32-0.68,0.18l-7.3-4.23c-0.15-0.09-0.24-0.24-0.25-0.41s0.07-0.33,0.21-0.43l6.92-4.83
					c0.08-0.06,0.17-0.09,0.26-0.09C357.47,440.35,357.64,440.42,357.74,440.57z"/>
			</g>
		</g>
	</g>
	<g>
		<g>
			<line class="st11" x1="795.5" y1="428.5" x2="796.45" y2="425.65"/>
			<line class="st12" x1="798.39" y1="419.83" x2="824.58" y2="341.26"/>
			<line class="st11" x1="825.55" y1="338.35" x2="826.5" y2="335.5"/>
		</g>
	</g>
	<g>
		<g>
			<line class="st11" x1="759.5" y1="390.5" x2="759.3" y2="387.51"/>
			<line class="st13" x1="758.87" y1="381.08" x2="753.92" y2="307.21"/>
			<line class="st11" x1="753.7" y1="303.99" x2="753.5" y2="301"/>
		</g>
	</g>
	<g>
		<g>
			<line class="st11" x1="709.5" y1="410" x2="709.16" y2="407.02"/>
			<line class="st14" x1="708.5" y1="401.11" x2="702.17" y2="344.94"/>
			<line class="st11" x1="701.84" y1="341.98" x2="701.5" y2="339"/>
		</g>
	</g>
	<g>
		<g>
			<line class="st11" x1="753.5" y1="300.5" x2="753.96" y2="297.53"/>
			<line class="st15" x1="754.81" y1="291.99" x2="764.62" y2="228.24"/>
			<line class="st11" x1="765.04" y1="225.47" x2="765.5" y2="222.5"/>
		</g>
	</g>
	<g>
		<g>
			<line class="st11" x1="701.5" y1="339.5" x2="698.79" y2="338.22"/>
			<line class="st16" x1="693.09" y1="335.53" x2="627.56" y2="304.62"/>
			<line class="st11" x1="624.71" y1="303.28" x2="622" y2="302"/>
		</g>
	</g>
	<g>
		<g>
			<line class="st11" x1="645.5" y1="474.5" x2="647.62" y2="472.38"/>
			<line class="st17" x1="651.61" y1="468.39" x2="705.39" y2="414.61"/>
			<line class="st11" x1="707.38" y1="412.62" x2="709.5" y2="410.5"/>
		</g>
	</g>
	<g>
		<g>
			<line class="st11" x1="795.5" y1="428.5" x2="793.44" y2="426.32"/>
			<line class="st18" x1="788.88" y1="421.52" x2="763.84" y2="395.08"/>
			<line class="st11" x1="761.56" y1="392.68" x2="759.5" y2="390.5"/>
		</g>
	</g>
	<g>
		<g>
			<line class="st11" x1="709.5" y1="409.5" x2="712.3" y2="408.43"/>
			<line class="st19" x1="718.65" y1="406.02" x2="753.52" y2="392.77"/>
			<line class="st11" x1="756.7" y1="391.57" x2="759.5" y2="390.5"/>
		</g>
	</g>
	<g>
		<g>
			<line class="st11" x1="701.5" y1="339.5" x2="703.92" y2="337.73"/>
			<line class="st20" x1="709.16" y1="333.9" x2="748.46" y2="305.18"/>
			<line class="st11" x1="751.08" y1="303.27" x2="753.5" y2="301.5"/>
		</g>
	</g>
	<g>
		<g>
			<line class="st11" x1="826.5" y1="335.5" x2="823.79" y2="334.2"/>
			<line class="st21" x1="818.6" y1="331.71" x2="758.8" y2="303.04"/>
			<line class="st11" x1="756.21" y1="301.8" x2="753.5" y2="300.5"/>
		</g>
	</g>
	<g>
		<g>
			<line class="st11" x1="891.5" y1="341.5" x2="888.51" y2="341.22"/>
			<line class="st22" x1="881.95" y1="340.62" x2="832.77" y2="336.08"/>
			<line class="st11" x1="829.49" y1="335.78" x2="826.5" y2="335.5"/>
		</g>
	</g>
	<g>
		<g>
			<line class="st11" x1="826.5" y1="489.5" x2="825.14" y2="486.83"/>
			<line class="st23" x1="822.57" y1="481.77" x2="798.14" y2="433.7"/>
			<line class="st11" x1="796.86" y1="431.17" x2="795.5" y2="428.5"/>
		</g>
	</g>
	<g>
		<g>
			<line class="st10" x1="748" y1="387.5" x2="99.11" y2="370.73"/>
			<g>
				<path class="st7" d="M106.07,366.11c0.14,0.24,0.07,0.54-0.17,0.69l-6.56,3.94l6.34,4.27c0.23,0.15,0.29,0.47,0.14,0.69
					s-0.47,0.29-0.69,0.14l-7-4.71c-0.14-0.1-0.22-0.26-0.22-0.43s0.1-0.33,0.24-0.42l7.23-4.35c0.08-0.05,0.18-0.07,0.27-0.07
					C105.82,365.87,105.98,365.96,106.07,366.11z"/>
			</g>
		</g>
	</g>
	<g>
		<g>
			<line class="st10" x1="633" y1="474.5" x2="191.11" y2="467.72"/>
			<g>
				<path class="st7" d="M198.02,463.03c0.14,0.23,0.07,0.54-0.16,0.69l-6.51,4.01l6.39,4.21c0.23,0.15,0.29,0.46,0.14,0.69
					c-0.15,0.23-0.46,0.29-0.69,0.14l-7.04-4.64c-0.14-0.09-0.23-0.25-0.22-0.43c0-0.17,0.09-0.33,0.24-0.42l7.18-4.42
					c0.08-0.05,0.18-0.08,0.27-0.07C197.77,462.79,197.93,462.87,198.02,463.03z"/>
			</g>
		</g>
	</g>
	<circle class="st24" cx="621.5" cy="301.5" r="6"/>
	<circle class="st24" cx="701.5" cy="338.5" r="6"/>
	<circle class="st24" cx="753.5" cy="300.5" r="6"/>
	<circle class="st24" cx="759.5" cy="390.5" r="6"/>
	<circle class="st24" cx="826.5" cy="335.5" r="6"/>
	<circle class="st24" cx="891.5" cy="341.5" r="6"/>
	<circle class="st24" cx="765.5" cy="222.5" r="6"/>
	<circle class="st24" cx="795.5" cy="428.5" r="6"/>
	<circle class="st24" cx="826.5" cy="489.5" r="6"/>
	<circle class="st24" cx="645.5" cy="474.5" r="6"/>
	<circle class="st24" cx="709.5" cy="409.5" r="6"/>
	<circle class="st25" cx="338.5" cy="444.5" r="6"/>
	<circle class="st25" cx="283.5" cy="341.5" r="6"/>
	<circle class="st25" cx="189.5" cy="284.5" r="6"/>
	<circle class="st25" cx="87.5" cy="370.5" r="6"/>
	<circle class="st25" cx="178.5" cy="468.5" r="6"/>
	<g>
		<g>
			<line class="st11" x1="528.78" y1="41" x2="529.05" y2="53.92"/>
			<g>
				<polygon class="st3" points="524.89,50.69 525.61,50 529.05,53.54 532.32,49.85 533.07,50.52 529.08,55 				"/>
			</g>
		</g>
	</g>
	<g>
		<g>
			<line class="st11" x1="528.78" y1="67.5" x2="529.05" y2="80.42"/>
			<g>
				<polygon class="st3" points="524.89,77.19 525.61,76.49 529.05,80.03 532.32,76.35 533.07,77.02 529.08,81.5 				"/>
			</g>
		</g>
	</g>
	<g>
		<g>
			<line class="st11" x1="528.78" y1="94" x2="529.05" y2="106.92"/>
			<g>
				<polygon class="st3" points="524.89,103.69 525.61,102.99 529.05,106.53 532.32,102.85 533.07,103.52 529.08,108 				"/>
			</g>
		</g>
	</g>
	<g>
		<g>
			<path class="st11" d="M510.78,107.5c-17.67,0-32-14.33-32-32c0-17.31,13.74-31.41,30.92-31.98"/>
			<g>
				<polygon class="st3" points="506.64,47.85 505.91,47.16 509.31,43.59 505.5,40.46 506.14,39.69 510.78,43.5 				"/>
			</g>
		</g>
	</g>
</g>
</svg>
